<svg width="48" height="48" viewBox="0 0 48 48" fill="none" xmlns="http://www.w3.org/2000/svg">
<g clip-path="url(#clip0_604_470)">
<path d="M6.73152 47.9741H41.2685C45.8294 47.9741 48 46.6789 48 43.8295C48 37.0427 38.9055 27.2251 24.0136 27.2251C9.09445 27.2251 0 37.0427 0 43.8295C0 46.6789 2.17058 47.9741 6.73152 47.9741ZM5.44018 44.0626C4.72581 44.0626 4.42357 43.8814 4.42357 43.3373C4.42357 39.0632 11.4024 31.1365 24.0136 31.1365C36.5976 31.1365 43.5763 39.0632 43.5763 43.3373C43.5763 43.8814 43.3016 44.0626 42.5873 44.0626H5.44018ZM24.0136 23.9872C30.5529 23.9872 35.8831 18.5214 35.8831 11.8381C35.8831 5.20669 30.5804 0 24.0136 0C17.502 0 12.1442 5.3103 12.1442 11.8899C12.1442 18.5472 17.4745 23.9872 24.0136 23.9872ZM24.0136 20.0756C20.0023 20.0756 16.5678 16.4749 16.5678 11.8899C16.5678 7.38262 19.9474 3.91151 24.0136 3.91151C28.1076 3.91151 31.4596 7.30492 31.4596 11.8381C31.4596 16.4231 28.0526 20.0756 24.0136 20.0756Z" fill="white" fill-opacity="0.85"/>
</g>
<defs>
<clipPath id="clip0_604_470">
<rect width="48" height="48" fill="white"/>
</clipPath>
</defs>
</svg>
