<svg width="48" height="34" viewBox="0 0 48 34" fill="none" xmlns="http://www.w3.org/2000/svg">
<g clip-path="url(#clip0_604_479)">
<path d="M6.24617 33.9999H42.3506C45.9113 33.9999 48 31.9501 48 27.8898V6.12979C48 2.06951 45.8914 0.0196533 41.7538 0.0196533H5.6494C2.08869 0.0196533 0 2.06951 0 6.12979V27.8898C0 31.9501 2.10858 33.9999 6.24617 33.9999ZM6.12681 30.9843C4.15748 30.9843 3.04352 29.9002 3.04352 27.8701V6.11008C3.04352 4.09965 4.15748 3.03531 6.12681 3.03531H41.8533C43.8226 3.03531 44.9565 4.09965 44.9565 6.12979V27.8898C44.9565 29.9002 43.8226 30.9843 41.8533 30.9843H6.12681ZM23.99 22.1935C25.2631 22.1935 26.4965 21.7205 27.6303 20.6956L46.349 4.0011L44.2802 1.93154L25.8997 18.3501C25.2831 18.902 24.6465 19.1582 23.99 19.1582C23.3336 19.1582 22.6971 18.902 22.0804 18.3501L3.69996 1.93154L1.63117 4.0011L20.3498 20.6956C21.4836 21.7205 22.7169 22.1935 23.99 22.1935ZM3.99834 31.477L18.1219 17.4631L16.0531 15.4133L1.92955 29.4075L3.99834 31.477ZM44.0216 31.4967L46.0903 29.4272L31.9469 15.4133L29.8583 17.4631L44.0216 31.4967Z" fill="white" fill-opacity="0.85"/>
</g>
<defs>
<clipPath id="clip0_604_479">
<rect width="48" height="34" fill="white"/>
</clipPath>
</defs>
</svg>
